<svg height="512pt" viewBox="0 0 512.00045 512" width="512pt" xmlns="http://www.w3.org/2000/svg"><g fill-rule="evenodd"><path d="m39.597656 442.726562-29.589844 59.269532h491.988282l-84.128906-168.03125c-40.707032 32.652344-102.1875 69.898437-171.007813 69.898437-61.792969 0-117.71875-30.046875-157.96875-59.835937l-35.148437 70.378906zm0 0" fill="#ffc15a"/><path d="m169.703125 182.261719c24.035156-9.015625 50.03125-14.796875 77.15625-14.796875 35.96875 0 69.925781 10.144531 99.972656 24.546875l-91.101562-182.003907zm0 0" fill="#ffc15a"/><path d="m246.859375 167.464844c-27.125 0-53.117187 5.78125-77.15625 14.796875-84.554687 31.714843-144.816406 103.402343-144.816406 103.402343s24.433593 29.054688 64.003906 58.363282c40.25 29.789062 96.175781 59.835937 157.96875 59.835937 68.824219 0 130.304687-37.246093 171.007813-69.898437 31.832031-25.539063 50.964843-48.300782 50.964843-48.300782s-49.632812-59.042968-122-93.652343c-30.046875-14.398438-64.003906-24.546875-99.972656-24.546875zm0 0" fill="#f9f9f9"/><path d="m246.859375 213.949219c-39.597656 0-71.683594 32.117187-71.683594 71.714843 0 39.597657 32.085938 71.683594 71.683594 71.683594s71.714844-32.085937 71.714844-71.683594c0-39.597656-32.117188-71.714843-71.714844-71.714843zm0 37.359375c10.886719 0 19.699219 15.390625 19.699219 34.355468 0 18.960938-8.816406 34.355469-19.699219 34.355469s-19.699219-15.394531-19.699219-34.355469c0-18.964843 8.816406-34.355468 19.699219-34.355468zm0 0" fill="#f6838d"/><path d="m246.859375 251.308594c-10.882813 0-19.699219 15.390625-19.699219 34.355468 0 18.960938 8.816406 34.355469 19.699219 34.355469s19.699219-15.394531 19.699219-34.355469c0-18.964843-8.8125-34.355468-19.699219-34.355468zm0 0" fill="#b3b0b5"/></g><path d="m328.578125 285.664062c0-45.0625-36.660156-81.71875-81.71875-81.71875-45.046875 0-81.691406 36.65625-81.691406 81.71875 0 45.042969 36.644531 81.691407 81.691406 81.691407 45.058594 0 81.71875-36.648438 81.71875-81.691407zm-143.398437 0c0-34.027343 27.667968-61.707031 61.679687-61.707031 34.023437 0 61.707031 27.679688 61.707031 61.707031 0 34.007813-27.683594 61.679688-61.707031 61.679688-34.011719 0-61.679687-27.671875-61.679687-61.679688zm0 0"/><path d="m276.566406 285.664062c0-25.289062-12.773437-44.359374-29.707031-44.359374s-29.707031 19.070312-29.707031 44.359374c0 25.289063 12.773437 44.359376 29.707031 44.359376s29.707031-19.070313 29.707031-44.359376zm-39.402344 0c0-15.816406 6.882813-24.351562 9.695313-24.351562s9.691406 8.535156 9.691406 24.351562c0 15.816407-6.878906 24.347657-9.691406 24.347657s-9.695313-8.53125-9.695313-24.347657zm0 0"/><path d="m510.941406 497.515625-80.546875-160.875c28.445313-23.675781 45.335938-43.636719 46.09375-44.539063 3.128907-3.722656 3.128907-9.15625 0-12.878906-1.046875-1.242187-26.078125-30.804687-66.742187-60.71875-18.320313-13.476562-36.871094-24.800781-55.417969-33.902344l-89.648437-179.074218c-1.695313-3.386719-5.160157-5.527344-8.949219-5.527344h-.003907c-3.789062 0-7.253906 2.144531-8.945312 5.535156l-84.363281 168.917969c-26.171875 10.234375-52.539063 24.992187-78.445313 44.050781-40.664062 29.914063-65.695312 59.476563-66.742187 60.722656-3.128907 3.722657-3.128907 9.152344 0 12.875.832031.992188 20.777343 24.5625 53.933593 50.925782 1.636719 1.300781 3.332032 2.621094 5.066407 3.957031l-45.421875 90.960937c-.011719.023438-.023438.050782-.035156.074219l-29.71875 59.503907c-1.550782 3.101562-1.382813 6.785156.441406 9.734374 1.824218 2.949219 5.042968 4.742188 8.511718 4.742188h491.988282c3.46875 0 6.6875-1.796875 8.511718-4.75 1.824219-2.949219 1.988282-6.632812.433594-9.734375zm-255.199218-465.136719 70.085937 140c-26.816406-9.847656-53.378906-14.921875-78.96875-14.921875-18.777344 0-38.078125 2.742188-57.621094 8.082031zm-229.554688 459.609375 19.605469-39.257812h127.253906c5.527344 0 10.007813-4.480469 10.007813-10.007813s-4.480469-10.003906-10.007813-10.003906h-117.261719l36.824219-73.738281c29.800781 20.710937 69.277344 42.207031 113.378906 50.847656.648438.128906 1.296875.1875 1.9375.1875 4.6875 0 8.871094-3.3125 9.808594-8.082031 1.0625-5.425782-2.472656-10.683594-7.898437-11.746094-83.660157-16.390625-151.730469-83.375-171.488282-104.53125 9.460938-10.167969 29.992188-30.859375 57.871094-51.320312 35.355469-25.941407 90.1875-56.867188 150.640625-56.867188s115.285156 30.925781 150.640625 56.867188c27.886719 20.464843 48.417969 41.164062 57.878906 51.324218-19.46875 20.882813-85.890625 86.34375-168.140625 103.851563-5.40625 1.148437-8.855469 6.464843-7.703125 11.871093 1.148438 5.402344 6.457032 8.851563 11.871094 7.703126 49.410156-10.519532 92.835938-36.949219 122.976562-59.730469l41.738282 83.363281h-120.765625c-5.527344 0-10.007813 4.476562-10.007813 10.003906s4.480469 10.007813 10.007813 10.007813h130.785156l19.652344 39.257812zm0 0"/><path d="m247.058594 393.855469h-.199219c-5.527344 0-10.003906 4.480469-10.003906 10.007812 0 5.527344 4.476562 10.003907 10.003906 10.003907h.199219c5.523437 0 10.003906-4.476563 10.003906-10.003907 0-5.527343-4.480469-10.007812-10.003906-10.007812zm0 0"/></svg>