<svg height="504pt" viewBox="0 -24 504 504" width="504pt" xmlns="http://www.w3.org/2000/svg"><path d="m280 219.992188c0 15.464843-12.535156 28-28 28s-28-12.535157-28-28c0-15.464844 12.535156-28 28-28s28 12.535156 28 28zm0 0" fill="#4db6ac"/><path d="m280 287.992188c0 15.464843-12.535156 28-28 28s-28-12.535157-28-28c0-15.464844 12.535156-28 28-28s28 12.535156 28 28zm0 0" fill="#ffd740"/><path d="m280 423.992188c0 15.464843-12.535156 28-28 28s-28-12.535157-28-28c0-15.464844 12.535156-28 28-28s28 12.535156 28 28zm0 0" fill="#ff5252"/><g fill="#263238"><path d="m252 168c-37.273438 0-69.871094-24.503906-80.425781-60-13.039063-.222656-23.574219-10.902344-23.574219-24s10.535156-23.769531 23.574219-24c10.554687-35.503906 43.152343-60 80.425781-60s69.871094 24.503906 80.425781 60c13.039063.222656 23.574219 10.902344 23.574219 24s-10.535156 23.769531-23.574219 24c-10.554687 35.496094-43.152343 60-80.425781 60zm-77.929688-68.191406c1.875 0 3.90625 1.160156 4.355469 2.945312 8.574219 33.703125 38.832031 57.238282 73.566407 57.238282 34.734374 0 65-23.535157 73.566406-57.238282.496094-1.96875 2.363281-3.210937 4.394531-2.984375 1.046875.140625 1.535156.222657 2.039063.222657 8.824218 0 16-7.175782 16-16 0-8.824219-7.175782-16-16-16-.503907 0-.992188.078124-1.480469.152343-2.03125.304688-4.449219-.929687-4.953125-2.90625-8.558594-33.703125-38.816406-57.238281-73.558594-57.238281s-65 23.535156-73.566406 57.238281c-.496094 1.96875-2.386719 3.167969-4.394532 2.984375-1.046874-.144531-1.535156-.222656-2.039062-.222656-8.824219 0-16 7.175781-16 16s7.175781 16 16 16c.503906 0 .992188-.078125 1.480469-.152344.191406-.023437.390625-.039062.589843-.039062zm0 0"/><path d="m500 247.222656h-16c-2.207031 0-4-1.789062-4-4 0-2.207031 1.792969-4 4-4h16c2.207031 0 4 1.792969 4 4 0 2.210938-1.792969 4-4 4zm0 0"/><path d="m468 247.222656h-60c-2.207031 0-4-1.789062-4-4 0-2.207031 1.792969-4 4-4h60c2.207031 0 4 1.792969 4 4 0 2.210938-1.792969 4-4 4zm0 0"/><path d="m20 247.222656h-16c-2.207031 0-4-1.789062-4-4 0-2.207031 1.792969-4 4-4h16c2.207031 0 4 1.792969 4 4 0 2.210938-1.792969 4-4 4zm0 0"/><path d="m96 247.222656h-60c-2.207031 0-4-1.789062-4-4 0-2.207031 1.792969-4 4-4h60c2.207031 0 4 1.792969 4 4 0 2.210938-1.792969 4-4 4zm0 0"/><path d="m82.183594 360.769531c-10.96875 0-21.40625-6.488281-25.878906-17.226562-2.878907-6.902344-2.898438-14.511719-.046876-21.429688 2.847657-6.914062 8.214844-12.3125 15.117188-15.183593l56.617188-23.59375v-51.3125c0-18.429688 11.640624-35.046876 28.960937-41.34375l59.039063-21.472657v-11.902343c0-2.207032 1.792968-4 4-4 2.207031 0 4 1.792968 4 4v14.703124c0 1.679688-1.046876 3.183594-2.632813 3.761719l-61.671875 22.421875c-14.167969 5.152344-23.695312 18.753906-23.695312 33.832032v53.984374c0 1.617188-.976563 3.070313-2.464844 3.6875l-59.078125 24.617188c-4.9375 2.054688-8.769531 5.902344-10.800781 10.847656-2.03125 4.945313-2.023438 10.375.03125 15.3125 4.242187 10.175782 15.992187 15 26.152343 10.765625l86.160157-35.902343v-77.335938c0-2.207031 1.792968-4 4-4 2.207031 0 4 1.792969 4 4v80c0 1.617188-.976563 3.070312-2.464844 3.6875l-88.617188 36.929688c-3.503906 1.453124-7.140625 2.152343-10.726562 2.152343zm0 0"/><path d="m421.816406 360.769531c-3.585937 0-7.222656-.691406-10.738281-2.160156l-88.613281-36.929687c-1.488282-.625-2.464844-2.078126-2.464844-3.6875v-81.136719c0-2.207031 1.792969-4 4-4s4 1.792969 4 4l.007812 78.472656 86.152344 35.902344c10.167969 4.242187 21.902344-.582031 26.152344-10.765625 2.054688-4.929688 2.0625-10.367188.03125-15.3125-2.03125-4.945313-5.871094-8.792969-10.800781-10.847656l-59.078125-24.617188c-1.488282-.625-2.464844-2.078125-2.464844-3.6875v-53.984375c0-15.078125-9.519531-28.679687-23.695312-33.832031l-61.664063-22.421875c-1.585937-.578125-2.632813-2.074219-2.632813-3.761719v-14.703125c0-2.207031 1.792969-4 4-4 2.207032 0 4 1.792969 4 4v11.902344l59.03125 21.472656c17.328126 6.296875 28.96875 22.914063 28.96875 41.34375v51.3125l56.617188 23.59375c6.902344 2.871094 12.269531 8.269531 15.117188 15.183594 2.84375 6.910156 2.832031 14.527343-.046876 21.429687-4.480468 10.746094-14.910156 17.234375-25.878906 17.234375zm0 0"/><path d="m179.992188 352.910156c-2.207032 0-4-1.789062-4-4v-30.910156c0-2.207031 1.792968-4 4-4 2.207031 0 4 1.792969 4 4v30.910156c0 2.210938-1.792969 4-4 4zm0 0"/><path d="m324 352.910156c-2.207031 0-4-1.789062-4-4v-30.910156c0-2.207031 1.792969-4 4-4s4 1.792969 4 4v30.910156c0 2.210938-1.792969 4-4 4zm0 0"/><path d="m98.207031 456c-10.535156 0-20.664062-3.929688-28.605469-11.257812-9.832031-9.078126-14.714843-21.988282-13.386718-35.429688 1.929687-19.59375 18.121094-35.511719 38.503906-37.863281l143.058594-16.503907c9.421875-1.097656 18.992187-1.097656 28.421875 0l143.074219 16.503907c20.382812 2.351562 36.582031 18.269531 38.503906 37.863281 1.320312 13.441406-3.5625 26.351562-13.394532 35.429688-9.839843 9.097656-23.039062 12.953124-36.214843 10.578124l-146.167969-26.242187-146.183594 26.242187c-2.542968.457032-5.089844.679688-7.609375.679688zm153.785157-93.878906c-4.441407 0-8.878907.253906-13.296876.757812l-143.054687 16.511719c-16.664063 1.929687-29.898437 14.832031-31.464844 30.699219-1.070312 10.917968 2.878907 21.40625 10.847657 28.765625 7.976562 7.367187 18.679687 10.488281 29.375 8.585937l146.890624-26.363281c.472657-.085937.941407-.085937 1.414063 0l146.890625 26.363281c10.6875 1.917969 21.390625-1.210937 29.375-8.585937 7.976562-7.359375 11.925781-17.847657 10.855469-28.765625-1.558594-15.867188-14.792969-28.777344-31.464844-30.699219l-143.070313-16.503906c-4.410156-.511719-8.847656-.765625-13.296874-.765625zm0 0"/><path d="m80 184c-1.71875 0-3.246094-1.105469-3.792969-2.734375l-4.421875-13.265625c-1.847656-5.535156-6.257812-9.945312-11.785156-11.792969l-13.265625-4.414062c-1.628906-.546875-2.734375-2.074219-2.734375-3.792969s1.105469-3.246094 2.734375-3.792969l13.265625-4.421875c5.527344-1.847656 9.9375-6.257812 11.785156-11.785156l4.421875-13.265625c1.089844-3.261719 6.496094-3.261719 7.585938 0l4.421875 13.265625c1.847656 5.527344 6.257812 9.9375 11.785156 11.785156l13.265625 4.421875c1.628906.535157 2.734375 2.066407 2.734375 3.792969s-1.105469 3.246094-2.734375 3.792969l-13.265625 4.414062c-5.527344 1.847657-9.9375 6.257813-11.785156 11.785157l-4.421875 13.265624c-.546875 1.636719-2.074219 2.742188-3.792969 2.742188zm-19.351562-36 1.878906.632812c7.90625 2.640626 14.199218 8.933594 16.839844 16.839844l.632812 1.878906.632812-1.878906c2.640626-7.90625 8.933594-14.199218 16.839844-16.839844l1.878906-.632812-1.878906-.632812c-7.90625-2.640626-14.199218-8.933594-16.839844-16.839844l-.632812-1.878906-.632812 1.878906c-2.640626 7.90625-8.933594 14.199218-16.839844 16.839844zm0 0"/><path d="m424 184c-1.71875 0-3.246094-1.105469-3.792969-2.734375l-4.421875-13.265625c-1.847656-5.527344-6.257812-9.9375-11.785156-11.785156l-13.265625-4.421875c-1.628906-.546875-2.734375-2.074219-2.734375-3.792969s1.105469-3.246094 2.734375-3.792969l13.265625-4.421875c5.527344-1.847656 9.9375-6.257812 11.785156-11.785156l4.421875-13.265625c1.089844-3.261719 6.496094-3.261719 7.585938 0l4.421875 13.265625c1.847656 5.527344 6.257812 9.9375 11.785156 11.785156l13.265625 4.421875c1.628906.535157 2.734375 2.066407 2.734375 3.792969s-1.105469 3.246094-2.734375 3.792969l-13.265625 4.414062c-5.527344 1.847657-9.9375 6.257813-11.785156 11.785157l-4.421875 13.265624c-.546875 1.636719-2.074219 2.742188-3.792969 2.742188zm-19.351562-36 1.878906.632812c7.90625 2.640626 14.199218 8.933594 16.839844 16.839844l.632812 1.878906.632812-1.878906c2.640626-7.90625 8.933594-14.199218 16.839844-16.839844l1.878906-.632812-1.878906-.632812c-7.90625-2.640626-14.199218-8.933594-16.839844-16.839844l-.632812-1.878906-.632812 1.878906c-2.640626 7.90625-8.933594 14.199218-16.839844 16.839844zm0 0"/></g><path d="m280 83.992188c0 15.464843-12.535156 28-28 28s-28-12.535157-28-28c0-15.464844 12.535156-28 28-28s28 12.535156 28 28zm0 0" fill="#40c4ff"/></svg>