<?xml version="1.0" encoding="iso-8859-1"?>
<!-- Generator: Adobe Illustrator 19.0.0, SVG Export Plug-In . SVG Version: 6.00 Build 0)  -->
<svg version="1.1" id="Capa_1" xmlns="http://www.w3.org/2000/svg" xmlns:xlink="http://www.w3.org/1999/xlink" x="0px" y="0px"
	 viewBox="0 0 512 512" style="enable-background:new 0 0 512 512;" xml:space="preserve">
<path style="fill:#BEF7F0;" d="M479.559,339.927c0-123.598-100.196-223.794-223.794-223.794S31.971,216.329,31.971,339.927
	c0,63.648,26.573,121.09,69.227,161.839L479.559,339.927z"/>
<g>
	<path style="fill:#59AA33;" d="M353.675,393.772l125.884-53.845c0-120.249-94.843-218.333-213.803-223.561v34.224v33.018
		c0,10.292,8.343,18.635,18.635,18.635h26.239c6.13,0,11.1,4.969,11.1,11.1v4.558c0,3.759-1.902,7.261-5.053,9.308l0,0
		c-8.098,5.259-6.082,17.635,3.265,20.054l25.417,6.578c4.898,1.268,8.318,5.687,8.318,10.745v53.526L353.675,393.772
		L353.675,393.772z"/>
	<path style="fill:#59AA33;" d="M127.883,300.618c0,0,12.376-27.642,27.642-27.642h33.865c13.529,0,24.494-10.967,24.494-24.494
		v-38.929c0-13.529-10.967-24.494-24.494-24.494l0,0c-13.529,0-24.494-10.967-24.494-24.494v-25.198
		C86.581,170.205,31.971,248.684,31.971,339.927c0,63.648,26.573,121.09,69.227,161.839l26.684-11.414V300.618z"/>
</g>
<path style="fill:#FFBC97;" d="M477.676,311.91L477.676,311.91c-6.972,0-13.605,2.998-18.212,8.231l-1.827,2.076l-0.007-0.03
	c14.264-15.563,3.224-40.656-17.886-40.656l0,0c-6.972,0-13.605,2.998-18.212,8.231L364.2,354.894
	c-14.741,16.747-33.105,29.505-53.404,37.512H173.099c4.543-5.817,11.616-9.561,19.569-9.561h66.094
	c14.346,0,25.976-11.63,25.976-25.976l0,0c0-14.346-11.63-25.976-25.976-25.976H120.335c-31.438,0-61.394,13.37-82.386,36.772
	L9.991,398.83v102.936h265.427c53.136,0,103.833-22.303,139.737-61.475l80.407-87.725
	C509.826,337.004,498.787,311.91,477.676,311.91z"/>
<g>
	<path style="fill:#A3ED5C;" d="M256.195,116.055l0.015-0.015c-0.04-0.228-5.324-53.016,24.005-81.8
		c29.346-28.786,81.226-23.681,81.455-23.66l0.008-0.008l-0.011,0.011l0.007-0.007l-0.009,0.009
		c0.041,0.44,6.527,54.323-22.754,83.059C309.51,122.501,256.195,116.055,256.195,116.055z"/>
	<path style="fill:#A3ED5C;" d="M172.622,93.645c-29.281-28.736-22.795-82.62-22.754-83.059l-0.009-0.009l0.007,0.007l-0.011-0.011
		l0.008,0.008c0.229-0.021,52.109-5.126,81.455,23.66c29.329,28.784,24.045,81.572,24.005,81.8l0.015,0.015
		C255.337,116.055,202.021,122.501,172.622,93.645z"/>
</g>
<path d="M509.029,322.378c-5.552-12.62-17.566-20.46-31.353-20.46c-1.289,0-2.57,0.077-3.837,0.22
	c-0.388-3.419-1.287-6.832-2.741-10.139c-5.552-12.619-17.566-20.46-31.353-20.46c-9.839,0-19.21,4.236-25.711,11.621
	l-57.331,65.131c-13.467,15.3-30.609,27.34-49.57,34.818c-5.133,2.024-7.653,7.827-5.629,12.96c1.551,3.93,5.314,6.327,9.297,6.327
	c1.219,0,2.46-0.225,3.663-0.699c21.895-8.636,41.688-22.538,57.238-40.204l57.331-65.132c2.708-3.077,6.613-4.842,10.712-4.842
	c5.832,0,10.715,3.187,13.064,8.524c2.348,5.338,1.398,11.091-2.543,15.39c-0.175,0.191-0.332,0.391-0.49,0.59l-55.142,62.644
	c-24.516,27.852-59.859,43.827-96.965,43.827h-105c-8.178,0-14.831-6.654-14.831-14.831c0-8.177,6.654-14.831,14.831-14.831h66.094
	c19.833,0,35.967-16.134,35.967-35.967s-16.134-35.967-35.967-35.967H120.335c-34.229,0-66.967,14.613-89.823,40.091L2.554,392.158
	c-3.685,4.107-3.342,10.424,0.765,14.109c4.109,3.686,10.424,3.342,14.109-0.765l27.957-31.165
	c19.07-21.259,46.389-33.452,74.949-33.452h138.428c8.814,0,15.985,7.171,15.985,15.985s-7.171,15.985-15.985,15.985h-66.094
	c-19.196,0-34.813,15.617-34.813,34.813c0,19.196,15.617,34.813,34.813,34.813h105c42.846,0,83.654-18.445,111.963-50.605
	l57.331-65.131c2.709-3.077,6.613-4.843,10.713-4.843c5.832,0,10.715,3.186,13.063,8.524s1.398,11.092-2.543,15.39l-80.407,87.725
	c-33.921,37.009-82.168,58.235-132.372,58.235H9.991c-5.518,0-9.991,4.473-9.991,9.991s4.473,9.991,9.991,9.991h265.427
	c55.79,0,109.406-23.587,147.103-64.715l80.407-87.725C512.243,349.152,514.581,334.998,509.029,322.378z"/>
<polygon points="165.624,100.776 165.623,100.775 165.623,100.775 "/>
<path d="M353.675,328.102c5.518,0,9.991-4.473,9.991-9.991v-53.527c0-9.613-6.5-18.008-15.805-20.417l-25.418-6.578
	c-0.245-0.063-0.699-0.181-0.816-0.895c-0.116-0.714,0.279-0.971,0.491-1.108c6.013-3.905,9.603-10.517,9.603-17.688v-4.558
	c0-11.629-9.461-21.091-21.091-21.091h-26.239c-4.767,0-8.644-3.877-8.644-8.644v-33.018c0-5.518-4.473-9.991-9.991-9.991
	c-5.518,0-9.991,4.473-9.991,9.991v33.018c0,15.784,12.841,28.626,28.626,28.626h26.239c0.611,0,1.109,0.498,1.109,1.109v4.558
	c0,0.377-0.189,0.724-0.506,0.93c-7.117,4.623-10.692,12.699-9.327,21.077c1.364,8.377,7.315,14.902,15.531,17.028l25.418,6.578
	c0.49,0.126,0.831,0.567,0.831,1.073v53.527C343.684,323.629,348.157,328.102,353.675,328.102z"/>
<path d="M454.716,261.466c0.036,0.093,0.087,0.223,0.126,0.315c1.604,3.826,5.313,6.129,9.219,6.129
	c1.288,0,2.598-0.251,3.859-0.779c5.03-2.109,7.429-7.855,5.422-12.902c-2.003-5.117-7.766-7.654-12.897-5.674
	C455.301,250.539,452.738,256.32,454.716,261.466z"/>
<path d="M31.755,341.259c0.13,0.005,0.258,0.007,0.387,0.007c5.342,0,9.772-4.227,9.977-9.611
	c2.995-78.81,47.83-145.935,112.785-180.51v9.417c0,19.016,15.47,34.486,34.486,34.486c7.998,0,14.505,6.507,14.505,14.505v38.929
	c0,7.998-6.507,14.505-14.505,14.505h-33.865c-20.751,0-37.632,16.881-37.632,37.632c0,5.518,4.473,9.991,9.991,9.991
	c5.518,0,9.991-4.473,9.991-9.991c0-9.732,7.918-17.651,17.651-17.651h33.865c19.016,0,34.486-15.47,34.486-34.486v-38.929
	c0-19.016-15.47-34.486-34.486-34.486c-7.998,0-14.505-6.507-14.505-14.505v-18.761c20.445-8.291,42.477-13.519,65.529-15.134
	c0.637,0.007,1.261,0.011,1.869,0.011c0.022-0.046,0.044-0.084,0.066-0.129c4.438-0.272,8.909-0.426,13.418-0.426
	c4.49,0,8.961,0.148,13.409,0.43c0.025,0.044,0.05,0.081,0.074,0.125c0.531,0,1.079-0.004,1.632-0.009
	c70.276,5.023,134.481,44.808,170.09,106.361c2.762,4.777,8.874,6.408,13.65,3.645c4.777-2.763,6.408-8.875,3.646-13.65
	c-20.186-34.895-49.216-64.161-83.949-84.635c-16.093-9.486-33.241-16.954-51.036-22.308c8.1-3.717,15.875-8.679,22.626-15.305
	c30.73-30.157,26.567-82.844,25.738-90.803c-0.146-2.406-1.159-4.765-3.025-6.572c-1.712-1.657-3.867-2.581-6.074-2.772
	c-3.099-0.287-57.429-4.81-89.331,26.482c-7.798,7.653-13.416,16.687-17.451,26.034c-4.035-9.348-9.653-18.381-17.452-26.035
	C207.178-3.432,154.673,0.145,149.32,0.599c-2.323,0.125-4.612,1.058-6.411,2.8c-1.848,1.79-2.857,4.124-3.017,6.509
	c-0.803,7.636-5.11,60.598,25.731,90.867c6.732,6.608,14.484,11.56,22.559,15.274c-35.202,10.591-67.619,29.464-94.728,55.619
	c-43.68,42.144-69.003,98.692-71.302,159.228C21.942,336.41,26.241,341.05,31.755,341.259z M287.209,41.372
	c19.02-18.655,50.119-21.12,65.04-21.137c0.393,15.322-1.288,47.582-20.339,66.278c-14.51,14.242-36.414,18.654-52.729,19.796
	l29.324-29.324c3.901-3.901,3.901-10.228,0-14.13c-3.901-3.901-10.228-3.901-14.13,0l-27.74,27.74
	C268.38,74.858,273.459,54.868,287.209,41.372z M179.619,86.514c-19.05-18.696-20.731-50.958-20.338-66.279
	c14.898,0.016,46.015,2.476,65.038,21.137c14.042,13.782,19.039,34.332,20.68,50.218l-28.732-28.732
	c-3.901-3.901-10.228-3.901-14.129,0s-3.901,10.228,0,14.129l29.294,29.294C215.251,105.052,193.917,100.548,179.619,86.514
	L179.619,86.514z"/>
<g>
</g>
<g>
</g>
<g>
</g>
<g>
</g>
<g>
</g>
<g>
</g>
<g>
</g>
<g>
</g>
<g>
</g>
<g>
</g>
<g>
</g>
<g>
</g>
<g>
</g>
<g>
</g>
<g>
</g>
</svg>
