<svg height="496pt" viewBox="0 0 496 496" width="496pt" xmlns="http://www.w3.org/2000/svg"><path d="m330.535156 128.671875c5.746094-17.039063 20.777344-29.75 39.089844-32.183594l12.3125-28.824219-42.363281-42.351562-24.972657 16.253906c-9.488281-5.34375-19.523437-9.503906-29.945312-12.421875l-6.167969-29.144531h-60.96875l-6.167969 29.144531c-10.421874 2.917969-20.464843 7.078125-29.945312 12.421875l-24.972656-16.253906-42.328125 42.328125 12.078125 28.773437c18.359375 2.449219 33.105468 15.792969 39.007812 33.011719l2.808594-6.144531c14.328125-31.152344 45.726562-51.28125 80-51.28125 33.96875 0 65.257812 19.871094 79.703125 50.640625zm0 0" fill="#f0bc5e"/><path d="m313.695312 218.175781-33.703124-8.433593v-3.832032c14.910156-10.40625 24.007812-27.597656 24.007812-45.910156v-13.984375c0-31.078125-24.351562-57.085937-54.28125-57.992187-15.335938-.488282-29.75 5.144531-40.710938 15.785156-10.96875 10.640625-17.007812 24.910156-17.007812 40.191406v16c0 18.3125 9.089844 35.496094 24 45.902344v3.839844l-33.695312 8.433593c-17.839844 4.457031-30.304688 20.417969-30.304688 38.808594v14.128906l22.320312-4.960937c6.433594-1.433594 13.007813-2.152344 19.589844-2.152344 9.335938 0 18.617188 1.449219 27.503906 4.289062l36.625 11.710938c3.953126 0 7.890626.550781 11.6875 1.640625l50.273438 14.359375h8l16-8.425781v-30.589844c0-18.390625-12.464844-34.351563-30.304688-38.808594zm0 0" fill="#f0bc5e"/><path d="m496 208h-17.976562l-26.792969 14.097656c-3.015625-1.664062-6.152344-3.074218-9.535157-3.921875l-33.703124-8.433593v-3.832032c14.910156-10.40625 24.007812-27.597656 24.007812-45.910156v-13.984375c0-31.078125-24.351562-57.085937-54.28125-57.992187-15.3125-.449219-29.75 5.144531-40.710938 15.785156-10.96875 10.640625-17.007812 24.910156-17.007812 40.191406v16c0 18.3125 9.089844 35.496094 24 45.902344v3.839844l-32 8.011718 1.695312.421875c7.410157 1.847657 13.808594 5.761719 18.847657 10.929688l27.457031-6.859375v-25.335938l-3.992188-2.308594c-12.34375-7.136718-20.007812-20.402343-20.007812-34.601562v-16c0-10.910156 4.3125-21.113281 12.152344-28.710938 7.832031-7.59375 18.222656-11.6875 29.085937-11.265624 21.371094.640624 38.761719 19.480468 38.761719 41.992187v13.984375c0 14.199219-7.671875 27.464844-20.023438 34.617188l-4 2.3125.03125 25.316406 39.96875 9.984375-105.953124 55.769531h-4.902344l-49.183594-14.054688c-3.867188-1.097656-7.859375-1.546874-11.867188-1.699218l-36.214843-11.574219c-16.503907-5.289063-34.367188-6.078125-51.261719-2.335937l-45.539062 10.121093.648437-2.265625.296875-14.785156-42.191406-24.613281 18.191406-4.546875v-25.335938l-3.992188-2.308594c-12.34375-7.136718-20.007812-20.402343-20.007812-34.601562v-16c0-10.910156 4.3125-21.113281 12.152344-28.710938 7.832031-7.59375 18.246094-11.6875 29.085937-11.265624 21.371094.640624 38.761719 19.480468 38.761719 41.992187v13.984375c0 14.199219-7.671875 27.464844-20.023438 34.617188l-4 2.3125.03125 25.316406 27.449219 6.859375c5.046875-5.167969 11.4375-9.082031 18.847657-10.929688l1.695312-.421875-32.007812-8.011718v-3.832032c14.910156-10.40625 24.007812-27.597656 24.007812-45.910156v-13.984375c0-31.078125-24.351562-57.085937-54.28125-57.992187-15.320312-.449219-29.75 5.144531-40.710938 15.785156-10.96875 10.640625-17.007812 24.910156-17.007812 40.191406v16c0 18.3125 9.089844 35.496094 24 45.902344v3.839844l-21.984375 5.496093-39.847656-23.238281h-26.167969v165.769531l78.703125 26.230469h15.328125l1.914062-6.703125 24.125 14.480469c.394532 13.117187 10.914063 23.671875 24.019532 24.132812.460937 13.050782 10.949218 23.539063 24 24 .460937 13.050782 10.949218 23.539063 24 24 .476562 13.355469 11.414062 24.089844 24.878906 24.089844 5 0 9.902344-1.558594 14.023438-4.335938l7.085937 6.257813c4.441406 3.910156 10.160156 6.078125 16.097656 6.078125h1.480469c13.3125 0 24.144531-10.761719 24.3125-24.03125 13.167969-.167969 23.832031-10.832031 24-24 13.175781-.167969 23.847656-10.847656 24-24.023438 13.296875-.3125 24.03125-11.175781 24.03125-24.546874 0-.804688-.039062-1.597657-.121094-2.398438l144.121094-72.054688zm-480 0h5.832031l57.535157 33.558594-29.03125 116.121094-34.335938-11.449219zm65.296875 160-15.746094-5.246094 28.203125-112.800781 18.246094 10.640625v2.285156l-30.03125 105.121094zm54.703125 23.03125c0-2.359375.953125-4.671875 2.625-6.34375l14.0625-14.0625c1.671875-1.671875 3.984375-2.625 6.34375-2.625 4.945312 0 8.96875 4.023438 8.96875 8.96875 0 2.359375-.953125 4.671875-2.625 6.34375l-14.0625 14.0625c-1.671875 1.671875-3.984375 2.625-6.34375 2.625-4.945312 0-8.96875-4.023438-8.96875-8.96875zm24 24c0-2.359375.953125-4.671875 2.625-6.34375l14.0625-14.0625c1.671875-1.671875 3.984375-2.625 6.34375-2.625 4.945312 0 8.96875 4.023438 8.96875 8.96875 0 2.359375-.953125 4.671875-2.625 6.34375l-14.0625 14.0625c-1.671875 1.671875-3.984375 2.625-6.34375 2.625-4.945312 0-8.96875-4.023438-8.96875-8.96875zm24 24c0-2.359375.953125-4.671875 2.625-6.34375l14.0625-14.0625c1.671875-1.671875 3.984375-2.625 6.34375-2.625 4.945312 0 8.96875 4.023438 8.96875 8.96875 0 2.359375-.953125 4.671875-2.625 6.34375l-14.0625 14.0625c-1.671875 1.671875-3.984375 2.625-6.34375 2.625-4.945312 0-8.96875-4.023438-8.96875-8.96875zm32.96875 32.96875c-4.945312 0-8.96875-4.023438-8.96875-8.96875 0-2.359375.953125-4.671875 2.625-6.34375l14.0625-14.0625c1.671875-1.671875 3.984375-2.625 6.34375-2.625 4.945312 0 8.96875 4.023438 8.96875 8.96875 0 2.359375-.953125 4.671875-2.625 6.34375l-14.0625 14.0625c-1.671875 1.671875-3.984375 2.625-6.34375 2.625zm38.6875 8h-1.480469c-2.039062 0-3.992187-.742188-5.511719-2.089844l-5.984374-5.277344 6.007812-6.007812c2.144531-2.144531 3.808594-4.695312 5.039062-7.433594l7.273438 6.054688c1.902344 1.585937 3 3.921875 3 6.410156 0 4.601562-3.742188 8.34375-8.34375 8.34375zm71.742188-72h-1.382813c-2.007813 0-3.96875-.710938-5.503906-2l-43.382813-36.152344-10.25 12.296875 42.128906 35.101563c1.894532 1.585937 2.992188 3.921875 2.992188 6.410156 0 4.601562-3.742188 8.34375-8.34375 8.34375h-1.746094c-1.941406 0-3.839844-.6875-5.335937-1.9375l-43.453125-36.207031-10.25 12.296875 42.128906 35.105468c1.902344 1.574219 3 3.910157 3 6.398438 0 4.601562-3.742188 8.34375-8.34375 8.34375-3.070312 0-6.0625-1.089844-8.417969-3.046875l-17.855469-14.882813c-3.933593-8.039062-12.015624-13.644531-21.480468-13.980468-.460938-13.050782-10.949219-23.539063-24-24-.460938-13.050782-10.949219-23.539063-24-24-.46875-13.355469-11.40625-24.089844-24.871094-24.089844-6.574219 0-13.007812 2.664062-17.65625 7.3125l-14.0625 14.0625c-.839844.839844-1.535156 1.792969-2.242188 2.738281l-24.574218-14.746093 21.542968-75.398438 54.007813-12.007812c14.167969-3.167969 29.105469-2.480469 42.921875 1.941406l11.785156 3.769531-39.953125 19.976563c-9.128906 4.574218-14.800781 13.757812-14.800781 23.96875v1.582031c0 14.777343 12.023438 26.800781 26.800781 26.800781 4.855469 0 9.632813-1.320312 13.785157-3.824219l29.789062-17.863281c5.984375-3.585938 14.015625-2.800781 19.183594 1.847656l67.59375 60.832032c1.808594 1.640624 2.847656 3.96875 2.847656 6.40625 0 4.746093-3.855469 8.601562-8.601562 8.601562zm152.601562-92.945312-134.777344 67.394531c-.4375-.464844-.894531-.90625-1.375-1.335938l-67.582031-60.832031c-5.921875-5.34375-13.578125-8.28125-21.554687-8.28125-5.832032 0-11.558594 1.585938-16.574219 4.59375l-29.800781 17.871094c-1.671876 1.007812-3.582032 1.535156-5.535157 1.535156-5.960937 0-10.800781-4.839844-10.800781-10.800781v-1.582031c0-4.121094 2.289062-7.816407 5.96875-9.65625l44.625-22.3125c7.636719-3.824219 16.703125-4.679688 24.933594-2.3125l50.273437 14.359374 12.175781.304688 150.023438-78.960938zm0 0"/></svg>